<svg width="32" height="32" viewBox="0 0 32 32" fill="none" xmlns="http://www.w3.org/2000/svg">
<g id="arrow_back_FILL1_wght600_GRAD0_opsz48 1">
<path id="Vector" d="M9.9055 17.3205L16.9258 24.3407C17.1886 24.6047 17.3231 24.9168 17.3294 25.2771C17.3357 25.6374 17.2074 25.9517 16.9446 26.22C16.6818 26.4899 16.368 26.6217 16.0031 26.6154C15.6382 26.6091 15.3221 26.4746 15.0547 26.2118L5.78807 16.9451C5.65298 16.8068 5.55037 16.6568 5.48023 16.4951C5.41008 16.3333 5.375 16.1677 5.375 15.9981C5.375 15.8284 5.41008 15.6633 5.48023 15.5026C5.55037 15.3418 5.65298 15.1927 5.78807 15.0552L15.0736 5.76972C15.3552 5.5069 15.6718 5.37549 16.0232 5.37549C16.3747 5.37549 16.6818 5.5069 16.9446 5.76972C17.2074 6.04508 17.3388 6.35963 17.3388 6.71339C17.3388 7.06714 17.2074 7.37627 16.9446 7.64076L9.9055 14.6799H17.8613H25.8171C26.1923 14.6799 26.5093 14.8057 26.7681 15.0574C27.0268 15.3091 27.1562 15.6233 27.1562 16.0002C27.1562 16.377 27.0268 16.6912 26.7681 16.9429C26.5093 17.1946 26.1923 17.3205 25.8171 17.3205H9.9055Z" fill="#797979"/>
</g>
</svg>
