<svg width="32" height="32" viewBox="0 0 32 32" fill="none" xmlns="http://www.w3.org/2000/svg">
<g id="arrow_back_FILL1_wght600_GRAD0_opsz48 1">
<path id="Vector" d="M9.90587 17.3205L16.9261 24.3407C17.1889 24.6047 17.3235 24.9168 17.3298 25.2771C17.336 25.6374 17.2078 25.9517 16.945 26.22C16.6822 26.4899 16.3683 26.6217 16.0035 26.6154C15.6386 26.6091 15.3225 26.4746 15.0551 26.2118L5.78843 16.9451C5.65334 16.8068 5.55073 16.6568 5.4806 16.4951C5.41044 16.3333 5.37537 16.1677 5.37537 15.9981C5.37537 15.8284 5.41044 15.6633 5.4806 15.5026C5.55073 15.3418 5.65334 15.1927 5.78843 15.0552L15.0739 5.76972C15.3556 5.5069 15.6721 5.37549 16.0236 5.37549C16.375 5.37549 16.6822 5.5069 16.945 5.76972C17.2078 6.04508 17.3392 6.35963 17.3392 6.71339C17.3392 7.06714 17.2078 7.37627 16.945 7.64076L9.90587 14.6799H25.8174C26.1927 14.6799 26.5097 14.8057 26.7684 15.0574C27.0272 15.3091 27.1566 15.6233 27.1566 16.0002C27.1566 16.377 27.0272 16.6912 26.7684 16.9429C26.5097 17.1946 26.1927 17.3205 25.8174 17.3205H9.90587Z" fill="#5D5959"/>
</g>
</svg>
