<svg width="48" height="48" viewBox="0 0 48 48" fill="none" xmlns="http://www.w3.org/2000/svg">
<g id="Group 12938">
<g id="Group">
<path id="Vector" d="M19 19H18C17.4696 19 16.9609 19.2107 16.5858 19.5858C16.2107 19.9609 16 20.4696 16 21V30C16 30.5304 16.2107 31.0391 16.5858 31.4142C16.9609 31.7893 17.4696 32 18 32H27C27.5304 32 28.0391 31.7893 28.4142 31.4142C28.7893 31.0391 29 30.5304 29 30V29" stroke="#616161" stroke-width="2" stroke-linecap="round" stroke-linejoin="round"/>
<path id="Vector_2" d="M28 17.0001L31 20.0001M32.385 18.5851C32.7788 18.1913 33.0001 17.6571 33.0001 17.1001C33.0001 16.5431 32.7788 16.009 32.385 15.6151C31.9912 15.2213 31.457 15 30.9 15C30.343 15 29.8088 15.2213 29.415 15.6151L21 24.0001V27.0001H24L32.385 18.5851Z" stroke="#616161" stroke-width="2" stroke-linecap="round" stroke-linejoin="round"/>
</g>
</g>
</svg>
