<svg width="81" height="18" viewBox="0 0 81 18" fill="none" xmlns="http://www.w3.org/2000/svg">
<g id="HARU">
<path id="Vector" d="M63.2998 0H66.7993V9.50496C66.7993 10.2851 66.906 10.9806 67.1195 11.5914C67.3329 12.1949 67.6493 12.7064 68.0688 13.1259C68.4957 13.5454 69.0219 13.8655 69.6475 14.0863C70.2731 14.2998 71.0017 14.4065 71.8333 14.4065C72.6576 14.4065 73.3825 14.2998 74.0081 14.0863C74.641 13.8655 75.1672 13.5454 75.5867 13.1259C76.0136 12.7064 76.3337 12.1949 76.5471 11.5914C76.7606 10.9806 76.8673 10.2851 76.8673 9.50496V0H80.3668V9.92446C80.3668 11.0578 80.1754 12.0882 79.7927 13.0155C79.41 13.9428 78.8544 14.7377 78.1258 15.4C77.3972 16.0624 76.503 16.5739 75.4432 16.9345C74.3908 17.2951 73.1875 17.4754 71.8333 17.4754C70.4791 17.4754 69.2721 17.2951 68.2124 16.9345C67.1599 16.5739 66.2694 16.0624 65.5408 15.4C64.8122 14.7377 64.2566 13.9428 63.8739 13.0155C63.4912 12.0882 63.2998 11.0578 63.2998 9.92446V0Z" fill="#68B38F"/>
<path id="Vector_2" d="M43.2637 0H52.04C53.3648 0 54.5129 0.139833 55.4843 0.419499C56.4558 0.691805 57.2617 1.08923 57.902 1.61176C58.5423 2.13429 59.017 2.7709 59.3261 3.52158C59.6425 4.27227 59.8008 5.1223 59.8008 6.0717C59.8008 6.71198 59.7235 7.32283 59.5689 7.90424C59.4144 8.4783 59.1752 9.00819 58.8514 9.49393C58.5349 9.97966 58.1338 10.4139 57.6481 10.7966C57.1623 11.1719 56.592 11.4847 55.937 11.7349L59.6904 17.2547H55.4071L52.1615 12.3531H52.0621L46.7632 12.3421V17.2547H43.2637V0ZM52.1283 9.31729C52.7907 9.31729 53.3684 9.24002 53.8615 9.08547C54.362 8.93091 54.7778 8.7138 55.109 8.43414C55.4475 8.15447 55.6978 7.81593 55.8597 7.41851C56.029 7.01373 56.1136 6.56479 56.1136 6.0717C56.1136 5.10758 55.7824 4.36426 55.12 3.84173C54.4577 3.31183 53.4604 3.04689 52.1283 3.04689H46.7632V9.31729H52.1283Z" fill="#68B38F"/>
<path id="Vector_3" d="M28.5258 0H32.2351L40.5809 17.2547H36.9047L35.5248 14.3513H25.4458L24.11 17.2547H20.4229L28.5258 0ZM34.1449 11.47L30.4136 3.63198L26.7816 11.47H34.1449Z" fill="#68B38F"/>
<path id="Vector_4" d="M0 0H3.49951V4.5041H14.2299V0H17.7404V17.2547H14.2299V7.49579H3.49951V17.2547H0V0Z" fill="#68B38F"/>
</g>
</svg>
