<svg width="29" height="29" viewBox="0 0 29 29" fill="none" xmlns="http://www.w3.org/2000/svg">
<g id="ep:setting">
<rect width="29" height="29" rx="14.5" fill="#757575"/>
<path id="Vector" d="M16.4301 5C16.5775 5 16.7211 5.04561 16.8403 5.13023C16.9594 5.21486 17.0479 5.33416 17.093 5.47093L17.8589 7.79029C18.1806 7.94364 18.4883 8.116 18.7822 8.31007L21.2275 7.79707C21.3717 7.76707 21.5219 7.78245 21.6566 7.84098C21.7912 7.89951 21.9033 7.99819 21.9767 8.12279L23.9069 11.3786C23.9806 11.5031 24.0118 11.6472 23.996 11.7902C23.9802 11.9331 23.9183 12.0674 23.8191 12.1739L22.1411 13.9789C22.1655 14.325 22.1655 14.6723 22.1411 15.0184L23.8191 16.8261C23.9183 16.9326 23.9802 17.0669 23.996 17.2098C24.0118 17.3528 23.9806 17.4969 23.9069 17.6214L21.9767 20.8786C21.9031 21.0029 21.7909 21.1013 21.6563 21.1596C21.5217 21.2179 21.3716 21.2331 21.2275 21.2029L18.7822 20.6899C18.4897 20.8826 18.1806 21.0564 17.8603 21.2097L17.093 23.5291C17.0479 23.6658 16.9594 23.7851 16.8403 23.8698C16.7211 23.9544 16.5775 24 16.4301 24H12.5699C12.4225 24 12.2789 23.9544 12.1597 23.8698C12.0406 23.7851 11.9521 23.6658 11.907 23.5291L11.1425 21.2111C10.8217 21.0582 10.5122 20.8836 10.2164 20.6886L7.77246 21.2029C7.62828 21.2329 7.47805 21.2176 7.34341 21.159C7.20877 21.1005 7.09667 21.0018 7.02325 20.8772L5.09314 17.6214C5.01944 17.4969 4.98822 17.3528 5.00399 17.2098C5.01976 17.0669 5.0817 16.9326 5.18088 16.8261L6.85893 15.0184C6.83462 14.6732 6.83462 14.3268 6.85893 13.9816L5.18088 12.1739C5.0817 12.0674 5.01976 11.9331 5.00399 11.7902C4.98822 11.6472 5.01944 11.5031 5.09314 11.3786L7.02325 8.12143C7.09687 7.99708 7.20906 7.89869 7.34368 7.8404C7.47831 7.78212 7.62843 7.76695 7.77246 7.79707L10.2164 8.31143C10.5117 8.11736 10.8208 7.94229 11.1425 7.78893L11.9084 5.47093C11.9534 5.3346 12.0414 5.21562 12.16 5.13103C12.2786 5.04644 12.4216 5.00058 12.5685 5H16.4287H16.4301ZM15.9204 6.35714H13.0796L12.2886 8.75521L11.7552 9.009C11.493 9.13404 11.2399 9.27642 10.9977 9.43514L10.5047 9.76086L7.97578 9.22886L6.55535 11.6283L8.28911 13.4984L8.24733 14.0739C8.22732 14.3576 8.22732 14.6424 8.24733 14.9261L8.28911 15.5016L6.55256 17.3717L7.97438 19.7711L10.5033 19.2405L10.9963 19.5649C11.2385 19.7236 11.4916 19.866 11.7538 19.991L12.2872 20.2448L13.0796 22.6429H15.9232L16.717 20.2434L17.2489 19.991C17.5109 19.8662 17.7635 19.7239 18.0051 19.5649L18.4967 19.2405L21.027 19.7711L22.4474 17.3717L20.7123 15.5016L20.7541 14.9261C20.7741 14.6419 20.7741 14.3567 20.7541 14.0725L20.7123 13.4971L22.4488 11.6283L21.027 9.22886L18.4967 9.75814L18.0051 9.43514C17.7636 9.2761 17.5109 9.13371 17.2489 9.009L16.717 8.75657L15.9218 6.35714H15.9204ZM14.5 10.4286C15.608 10.4286 16.6706 10.8575 17.4541 11.6211C18.2376 12.3846 18.6777 13.4202 18.6777 14.5C18.6777 15.5798 18.2376 16.6154 17.4541 17.3789C16.6706 18.1425 15.608 18.5714 14.5 18.5714C13.392 18.5714 12.3294 18.1425 11.5459 17.3789C10.7624 16.6154 10.3223 15.5798 10.3223 14.5C10.3223 13.4202 10.7624 12.3846 11.5459 11.6211C12.3294 10.8575 13.392 10.4286 14.5 10.4286ZM14.5 11.7857C13.7613 11.7857 13.0529 12.0717 12.5306 12.5807C12.0083 13.0897 11.7148 13.7801 11.7148 14.5C11.7148 15.2199 12.0083 15.9103 12.5306 16.4193C13.0529 16.9283 13.7613 17.2143 14.5 17.2143C15.2387 17.2143 15.9471 16.9283 16.4694 16.4193C16.9917 15.9103 17.2852 15.2199 17.2852 14.5C17.2852 13.7801 16.9917 13.0897 16.4694 12.5807C15.9471 12.0717 15.2387 11.7857 14.5 11.7857Z" fill="white"/>
</g>
</svg>
