<svg width="32" height="32" viewBox="0 0 32 32" fill="none" xmlns="http://www.w3.org/2000/svg">
<g id="clarity:calendar-solid" clip-path="url(#clip0_780_2283)">
<path id="Vector" d="M28.6665 5.33311H25.1109V7.99978C25.1109 8.25658 25.0603 8.51088 24.962 8.74814C24.8638 8.98539 24.7197 9.20097 24.5381 9.38256C24.3565 9.56415 24.141 9.7082 23.9037 9.80647C23.6665 9.90475 23.4122 9.95533 23.1553 9.95533C22.8985 9.95533 22.6443 9.90475 22.407 9.80647C22.1697 9.7082 21.9542 9.56415 21.7726 9.38256C21.591 9.20097 21.4469 8.98539 21.3487 8.74814C21.2504 8.51088 21.1998 8.25658 21.1998 7.99978V5.33311H10.8442V7.99978C10.8442 8.51842 10.6382 9.01583 10.2715 9.38256C9.90473 9.7493 9.40733 9.95533 8.88868 9.95533C8.37004 9.95533 7.87263 9.7493 7.5059 9.38256C7.13916 9.01583 6.93313 8.51842 6.93313 7.99978V5.33311H3.37757C3.16604 5.3307 2.95617 5.37074 2.76038 5.45085C2.56458 5.53097 2.38685 5.64953 2.23767 5.79953C2.0885 5.94953 1.97092 6.12793 1.8919 6.32416C1.81287 6.52039 1.77399 6.73048 1.77757 6.942V26.8353C1.77404 27.0431 1.81148 27.2496 1.88775 27.4429C1.96401 27.6362 2.07762 27.8126 2.22207 27.962C2.36652 28.1114 2.53899 28.2309 2.72963 28.3136C2.92027 28.3964 3.12534 28.4407 3.33313 28.4442H28.6665C28.8743 28.4407 29.0793 28.3964 29.27 28.3136C29.4606 28.2309 29.6331 28.1114 29.7775 27.962C29.922 27.8126 30.0356 27.6362 30.1118 27.4429C30.1881 27.2496 30.2255 27.0431 30.222 26.8353V6.942C30.2255 6.73421 30.1881 6.52776 30.1118 6.33444C30.0356 6.14113 29.922 5.96473 29.7775 5.81532C29.6331 5.66592 29.4606 5.54643 29.27 5.46369C29.0793 5.38096 28.8743 5.33658 28.6665 5.33311ZM8.88868 23.1109H7.11091V21.3331H8.88868V23.1109ZM8.88868 18.6664H7.11091V16.8887H8.88868V18.6664ZM8.88868 14.222H7.11091V12.4442H8.88868V14.222ZM14.222 23.1109H12.4442V21.3331H14.222V23.1109ZM14.222 18.6664H12.4442V16.8887H14.222V18.6664ZM14.222 14.222H12.4442V12.4442H14.222V14.222ZM19.5554 23.1109H17.7776V21.3331H19.5554V23.1109ZM19.5554 18.6664H17.7776V16.8887H19.5554V18.6664ZM19.5554 14.222H17.7776V12.4442H19.5554V14.222ZM24.8887 23.1109H23.1109V21.3331H24.8887V23.1109ZM24.8887 18.6664H23.1109V16.8887H24.8887V18.6664ZM24.8887 14.222H23.1109V12.4442H24.8887V14.222Z" fill="#68B38F"/>
<path id="Vector_2" d="M8.88889 8.88845C9.12464 8.88845 9.35073 8.7948 9.51743 8.62811C9.68413 8.46141 9.77778 8.23531 9.77778 7.99957V2.66623C9.77778 2.43048 9.68413 2.20439 9.51743 2.03769C9.35073 1.87099 9.12464 1.77734 8.88889 1.77734C8.65314 1.77734 8.42705 1.87099 8.26035 2.03769C8.09365 2.20439 8 2.43048 8 2.66623V7.99957C8 8.23531 8.09365 8.46141 8.26035 8.62811C8.42705 8.7948 8.65314 8.88845 8.88889 8.88845Z" fill="#68B38F"/>
<path id="Vector_3" d="M23.1115 8.88845C23.3473 8.88845 23.5734 8.7948 23.7401 8.62811C23.9068 8.46141 24.0004 8.23531 24.0004 7.99957V2.66623C24.0004 2.43048 23.9068 2.20439 23.7401 2.03769C23.5734 1.87099 23.3473 1.77734 23.1115 1.77734C22.8758 1.77734 22.6497 1.87099 22.483 2.03769C22.3163 2.20439 22.2227 2.43048 22.2227 2.66623V7.99957C22.2227 8.23531 22.3163 8.46141 22.483 8.62811C22.6497 8.7948 22.8758 8.88845 23.1115 8.88845Z" fill="#68B38F"/>
</g>
<defs>
<clipPath id="clip0_780_2283">
<rect width="32" height="32" fill="white"/>
</clipPath>
</defs>
</svg>
