<svg width="32" height="32" viewBox="0 0 32 32" fill="none" xmlns="http://www.w3.org/2000/svg">
<g id="ion:home">
<path id="Vector" d="M16.3479 6.3301C16.2548 6.24109 16.131 6.19141 16.0023 6.19141C15.8735 6.19141 15.7497 6.24109 15.6566 6.3301L4.15039 17.322C4.10152 17.3687 4.06265 17.4249 4.03611 17.4871C4.00958 17.5493 3.99594 17.6162 3.99602 17.6838L3.99414 28.0001C3.99414 28.5305 4.20485 29.0392 4.57993 29.4143C4.955 29.7894 5.46371 30.0001 5.99414 30.0001H12.0004C12.2656 30.0001 12.52 29.8947 12.7075 29.7072C12.895 29.5197 13.0004 29.2653 13.0004 29.0001V20.5001C13.0004 20.3675 13.0531 20.2403 13.1468 20.1465C13.2406 20.0528 13.3678 20.0001 13.5004 20.0001H18.5004C18.633 20.0001 18.7602 20.0528 18.8539 20.1465C18.9477 20.2403 19.0004 20.3675 19.0004 20.5001V29.0001C19.0004 29.2653 19.1057 29.5197 19.2933 29.7072C19.4808 29.8947 19.7352 30.0001 20.0004 30.0001H26.0041C26.5346 30.0001 27.0433 29.7894 27.4184 29.4143C27.7934 29.0392 28.0041 28.5305 28.0041 28.0001V17.6838C28.0042 17.6162 27.9906 17.5493 27.964 17.4871C27.9375 17.4249 27.8986 17.3687 27.8498 17.322L16.3479 6.3301Z" fill="#68B38F"/>
<path id="Vector_2" d="M30.6819 15.2594L26.0069 10.7869V4C26.0069 3.73478 25.9015 3.48043 25.714 3.29289C25.5265 3.10536 25.2721 3 25.0069 3H22.0069C21.7417 3 21.4873 3.10536 21.2998 3.29289C21.1123 3.48043 21.0069 3.73478 21.0069 4V6L17.3869 2.53875C17.0481 2.19625 16.5444 2 16 2C15.4575 2 14.955 2.19625 14.6163 2.53938L1.32252 15.2581C0.933774 15.6331 0.885024 16.25 1.23877 16.6562C1.32761 16.7588 1.43637 16.8422 1.55846 16.9014C1.68055 16.9605 1.8134 16.9942 1.94892 17.0004C2.08445 17.0066 2.21982 16.9852 2.3468 16.9374C2.47378 16.8896 2.5897 16.8165 2.68752 16.7225L15.6563 4.33C15.7493 4.24099 15.8731 4.19131 16.0019 4.19131C16.1307 4.19131 16.2545 4.24099 16.3475 4.33L29.3175 16.7225C29.5086 16.9057 29.7645 17.0057 30.0291 17.0006C30.2938 16.9954 30.5456 16.8855 30.7294 16.695C31.1131 16.2975 31.0813 15.6412 30.6819 15.2594Z" fill="#68B38F"/>
</g>
</svg>
