<svg width="28" height="28" viewBox="0 0 28 28" fill="none" xmlns="http://www.w3.org/2000/svg">
<g id="icon-park-solid:setting" clip-path="url(#clip0_724_3553)">
<g id="Mask group">
<mask id="mask0_724_3553" style="mask-type:luminance" maskUnits="userSpaceOnUse" x="0" y="0" width="28" height="28">
<g id="Group">
<g id="Group_2">
<path id="Vector" d="M21.3998 8.84942C22.1437 9.91499 22.6471 11.1295 22.8751 12.4089H25.6663V15.5904H22.8751C22.6471 16.8698 22.1437 18.0844 21.3998 19.1499L23.3744 21.1245L21.1245 23.3744L19.1499 21.3998C18.0844 22.1437 16.8698 22.6471 15.5904 22.8751V25.6663H12.4089V22.8751C11.1295 22.6471 9.91499 22.1437 8.84942 21.3998L6.87484 23.3744L4.62492 21.1245L6.59951 19.1499C5.8556 18.0844 5.35223 16.8698 5.12426 15.5904H2.33301V12.4089H5.12426C5.35223 11.1295 5.8556 9.91499 6.59951 8.84942L4.62492 6.87484L6.87484 4.62492L8.84942 6.59951C9.91499 5.8556 11.1295 5.35223 12.4089 5.12426V2.33301H15.5904V5.12426C16.8698 5.35223 18.0844 5.8556 19.1499 6.59951L21.1245 4.62492L23.3744 6.87484L21.3998 8.84942Z" fill="white" stroke="white" stroke-width="4" stroke-linejoin="round"/>
<path id="Vector_2" d="M13.9997 16.9163C14.7732 16.9163 15.5151 16.6091 16.0621 16.0621C16.6091 15.5151 16.9163 14.7732 16.9163 13.9997C16.9163 13.2261 16.6091 12.4843 16.0621 11.9373C15.5151 11.3903 14.7732 11.083 13.9997 11.083C13.2261 11.083 12.4843 11.3903 11.9373 11.9373C11.3903 12.4843 11.083 13.2261 11.083 13.9997C11.083 14.7732 11.3903 15.5151 11.9373 16.0621C12.4843 16.6091 13.2261 16.9163 13.9997 16.9163Z" fill="black" stroke="black" stroke-width="4" stroke-linejoin="round"/>
</g>
</g>
</mask>
<g mask="url(#mask0_724_3553)">
<path id="Vector_3" d="M0 0H28V28H0V0Z" fill="#8F8F8F"/>
</g>
</g>
</g>
<defs>
<clipPath id="clip0_724_3553">
<rect width="28" height="28" fill="white"/>
</clipPath>
</defs>
</svg>
